<svg xmlns="http://www.w3.org/2000/svg" xmlns:xlink="http://www.w3.org/1999/xlink" width="500" zoomAndPan="magnify" viewBox="0 0 375 374.999991" height="500" preserveAspectRatio="xMidYMid meet" version="1.0"><defs><g/><clipPath id="79e236fa0d"><path d="M 229.613281 39.988281 L 359.363281 39.988281 L 359.363281 225.988281 L 229.613281 225.988281 Z M 229.613281 39.988281 " clip-rule="nonzero"/></clipPath><clipPath id="59365e1104"><path d="M 254.722656 69.84375 L 334.542969 69.84375 L 334.542969 149.664062 L 254.722656 149.664062 Z M 254.722656 69.84375 " clip-rule="nonzero"/></clipPath><clipPath id="098dfba694"><path d="M 294.632812 69.84375 C 272.589844 69.84375 254.722656 87.710938 254.722656 109.753906 C 254.722656 131.796875 272.589844 149.664062 294.632812 149.664062 C 316.675781 149.664062 334.542969 131.796875 334.542969 109.753906 C 334.542969 87.710938 316.675781 69.84375 294.632812 69.84375 " clip-rule="nonzero"/></clipPath><clipPath id="6047baad8f"><path d="M 266.070312 83.703125 L 323.023438 83.703125 L 323.023438 135.453125 L 266.070312 135.453125 Z M 266.070312 83.703125 " clip-rule="nonzero"/></clipPath></defs><rect x="-37.5" width="450" fill="#ffffff" y="-37.499999" height="449.999989" fill-opacity="1"/><rect x="-37.5" width="450" fill="#ffffff" y="-37.499999" height="449.999989" fill-opacity="1"/><rect x="-37.5" width="450" fill="#ffffff" y="-37.499999" height="449.999989" fill-opacity="1"/><g clip-path="url(#79e236fa0d)"><path fill="#ffde59" d="M 294.488281 39.992188 C 258.667969 39.992188 229.613281 69.148438 229.613281 105.089844 C 229.613281 153.914062 294.488281 225.988281 294.488281 225.988281 C 294.488281 225.988281 359.363281 153.914062 359.363281 105.089844 C 359.363281 69.148438 330.308594 39.992188 294.488281 39.992188 Z M 294.488281 128.339844 C 281.699219 128.339844 271.320312 117.925781 271.320312 105.089844 C 271.320312 92.257812 281.699219 81.839844 294.488281 81.839844 C 307.277344 81.839844 317.65625 92.257812 317.65625 105.089844 C 317.65625 117.925781 307.277344 128.339844 294.488281 128.339844 Z M 294.488281 128.339844 " fill-opacity="1" fill-rule="nonzero"/></g><g clip-path="url(#59365e1104)"><g clip-path="url(#098dfba694)"><path fill="#734201" d="M 254.722656 69.84375 L 334.542969 69.84375 L 334.542969 149.664062 L 254.722656 149.664062 Z M 254.722656 69.84375 " fill-opacity="1" fill-rule="nonzero"/></g></g><g clip-path="url(#6047baad8f)"><path fill="#e3f6ff" d="M 292.324219 90.214844 C 292.808594 90.367188 293.585938 90.394531 294.132812 90.300781 C 294.226562 90.292969 294.210938 90.394531 294.324219 90.363281 C 294.445312 89.878906 294.386719 89.335938 294.367188 88.796875 C 294.320312 87.488281 294.3125 86.054688 294.261719 84.742188 C 294.25 84.492188 294.304688 84.207031 294.15625 84 C 294.148438 84 294.140625 84 294.132812 84 C 294.105469 84.007812 294.089844 84.027344 294.089844 84.066406 C 294.03125 86.054688 294.082031 88.117188 294.132812 90.066406 C 293.851562 90.039062 293.503906 90.03125 293.175781 90.046875 C 292.875 90.058594 292.46875 90.035156 292.324219 90.214844 Z M 298.730469 88.902344 C 298.730469 89.429688 298.664062 89.972656 298.878906 90.40625 C 299.160156 90.355469 299.542969 90.34375 299.925781 90.324219 C 300.191406 90.304688 300.472656 90.347656 300.667969 90.238281 C 300.398438 89.929688 299.582031 90.179688 299.15625 90.109375 C 299.140625 88.5625 299.019531 86.898438 298.878906 85.316406 C 298.851562 84.984375 298.859375 84.09375 298.605469 84.105469 C 298.574219 84.117188 298.554688 84.140625 298.539062 84.171875 C 298.484375 84.632812 298.578125 85.175781 298.605469 85.71875 C 298.65625 86.792969 298.730469 87.867188 298.730469 88.902344 Z M 309.121094 89.855469 C 309.34375 90.070312 309.785156 90.035156 310.1875 90.027344 C 310.589844 90.015625 311.027344 90.007812 311.378906 89.984375 C 311.421875 88.550781 311.417969 86.425781 311.359375 84.953125 C 311.351562 84.753906 311.4375 84.039062 311.167969 84.253906 C 310.972656 85.953125 311.03125 88.085938 311.125 89.769531 C 310.832031 89.746094 310.457031 89.730469 310.082031 89.730469 C 309.738281 89.730469 309.296875 89.640625 309.121094 89.855469 Z M 284.507812 88.265625 C 284.734375 88.050781 284.25 87.914062 284.339844 87.566406 C 284.554688 87.433594 284.8125 87.679688 285.019531 87.628906 C 285.132812 87.359375 284.832031 87.121094 284.808594 86.820312 C 284.796875 86.703125 284.78125 86.519531 284.914062 86.484375 C 285.175781 86.410156 285.34375 87.199219 285.574219 86.652344 C 285.570312 87.125 285.972656 87.042969 286.171875 86.800781 C 286.179688 86.921875 286.222656 87.003906 286.296875 87.054688 C 286.535156 87.082031 286.597656 86.929688 286.851562 86.972656 C 287.011719 87.148438 286.757812 87.660156 287 87.691406 C 287.136719 87.710938 287.144531 87.515625 287.214844 87.414062 C 287.222656 87.585938 287.40625 87.707031 287.511719 87.542969 C 287.425781 87.3125 287.421875 86.917969 287.554688 86.738281 C 287.746094 86.824219 287.746094 87.117188 287.957031 87.140625 C 288.355469 87.179688 288.105469 86.558594 288.339844 86.355469 C 288.542969 86.417969 288.511719 86.683594 288.746094 86.671875 C 289.128906 86.65625 289.007812 85.640625 289.363281 85.589844 C 289.410156 85.917969 289.144531 86.402344 289.40625 86.546875 C 289.671875 86.691406 289.808594 86.339844 290 86.335938 C 289.878906 86.566406 289.761719 87.101562 290.171875 86.992188 C 290.375 86.9375 290.386719 86.519531 290.621094 86.527344 C 290.445312 86.988281 290.875 87.277344 291.109375 87.011719 C 291.097656 87.535156 291.671875 87.214844 291.960938 87.246094 C 291.984375 87.414062 291.816406 87.691406 292.003906 87.757812 C 292.140625 87.609375 292.296875 87.296875 292.257812 87.078125 C 292.210938 86.804688 291.867188 86.839844 291.601562 86.84375 C 291.757812 86.3125 291.269531 86.214844 291.003906 86.398438 C 290.992188 86.078125 290.59375 85.972656 290.363281 86.164062 C 290.320312 85.933594 289.980469 85.917969 289.746094 85.992188 C 289.753906 85.636719 289.757812 85.269531 289.511719 85.210938 C 289.03125 85.089844 288.816406 85.859375 288.660156 86.164062 C 288.292969 85.816406 287.910156 86.277344 287.914062 86.695312 C 287.71875 86.386719 287.261719 86.4375 287.214844 86.84375 C 287.144531 86.582031 286.710938 86.605469 286.488281 86.714844 C 286.464844 86.382812 286.039062 86.441406 285.871094 86.609375 C 285.863281 86.363281 285.519531 86.246094 285.339844 86.417969 C 285.203125 86.300781 284.964844 86.195312 284.703125 86.269531 C 284.398438 86.457031 284.566406 87.140625 284.65625 87.351562 C 283.921875 87.019531 283.984375 88.253906 284.507812 88.265625 Z M 301.457031 88.09375 C 301.761719 88.09375 301.917969 88.644531 302.179688 88.347656 C 302.089844 88.207031 301.984375 88.078125 301.925781 87.902344 C 301.980469 87.875 302.054688 87.984375 302.179688 87.96875 C 302.328125 87.945312 302.371094 87.824219 302.371094 87.648438 C 302.519531 87.699219 302.519531 87.835938 302.671875 87.839844 C 302.996094 87.847656 302.949219 87.285156 303.117188 87.078125 C 303.226562 87.3125 303.222656 87.589844 303.523438 87.542969 C 303.800781 87.5 303.855469 86.980469 304.117188 86.992188 C 304.058594 87.648438 304.664062 87.335938 304.925781 87.183594 C 304.84375 87.460938 304.898438 87.824219 305.121094 87.925781 C 305.25 87.933594 305.234375 87.796875 305.398438 87.839844 C 305.515625 87.675781 305.515625 87.394531 305.652344 87.246094 C 305.789062 87.351562 305.738281 87.570312 305.90625 87.605469 C 306.273438 87.683594 306.242188 87.039062 306.503906 86.929688 C 306.570312 87.0625 306.585938 87.199219 306.71875 87.222656 C 307.070312 87.300781 307.171875 86.679688 307.375 86.546875 C 307.363281 86.953125 307.230469 87.761719 307.78125 87.414062 C 307.828125 87.386719 307.882812 87.273438 307.929688 87.332031 C 307.675781 87.621094 308.074219 88.003906 308.335938 87.714844 C 308.34375 87.871094 308.164062 88.023438 308.207031 88.285156 C 305.953125 88.265625 303.761719 88.589844 301.5625 88.453125 C 301.371094 88.445312 301.183594 88.5 300.988281 88.5 C 301.078125 88.296875 301.25 88.179688 301.457031 88.09375 Z M 308.761719 88.605469 C 308.777344 88.808594 308.671875 89.050781 308.589844 89.304688 C 308.476562 89.644531 308.289062 89.929688 308.292969 90.40625 C 306.511719 90.382812 304.441406 90.558594 302.480469 90.554688 C 302.320312 89.894531 302.113281 89.28125 301.863281 88.710938 C 304.128906 88.859375 306.527344 88.6875 308.761719 88.605469 Z M 300.816406 90.046875 C 301.003906 90.523438 301.144531 91.042969 301.5 91.105469 C 301.203125 90.375 300.996094 89.445312 300.648438 88.835938 C 300.960938 88.871094 301.140625 88.773438 301.414062 88.773438 C 301.734375 89.289062 301.816406 90.042969 302.117188 90.578125 C 301.988281 90.753906 301.570312 90.640625 301.5 90.875 C 301.777344 91.023438 302.28125 90.882812 302.5 90.769531 C 304.363281 90.820312 306.410156 90.878906 308.226562 90.746094 C 308.339844 90.738281 308.339844 90.867188 308.441406 90.808594 C 308.707031 90.460938 308.980469 89.640625 309.121094 89.070312 C 309.175781 88.855469 309.289062 88.558594 309.269531 88.414062 C 309.230469 88.082031 308.804688 88.257812 308.527344 88.242188 C 308.660156 87.992188 309.085938 87.527344 308.695312 87.269531 C 308.589844 87.253906 308.421875 87.289062 308.378906 87.269531 C 308.585938 86.714844 308.0625 86.585938 307.800781 86.84375 C 307.789062 86.554688 307.765625 86.246094 307.566406 86.183594 C 307.175781 86.066406 306.976562 86.605469 306.78125 86.78125 C 306.492188 86.300781 306.070312 86.890625 305.949219 87.160156 C 305.800781 86.851562 305.375 87.039062 305.3125 87.289062 C 305.402344 86.761719 304.808594 86.789062 304.503906 86.949219 C 304.4375 86.300781 303.652344 86.699219 303.5 86.992188 C 303.269531 86.390625 302.644531 86.90625 302.609375 87.351562 C 302.425781 87.164062 302.097656 87.265625 302.03125 87.480469 C 301.78125 87.265625 301.34375 87.472656 301.519531 87.820312 C 301.027344 87.847656 300.835938 88.183594 300.691406 88.5625 C 300.570312 88.585938 300.316406 88.679688 300.285156 88.816406 C 300.253906 88.976562 300.488281 89.25 300.5625 89.410156 C 300.671875 89.644531 300.742188 89.851562 300.816406 90.046875 Z M 284.765625 88.667969 C 287.378906 88.621094 289.964844 88.542969 292.429688 88.347656 C 292.570312 88.371094 292.441406 88.519531 292.429688 88.5625 C 292.273438 89.117188 291.902344 89.628906 291.792969 90.257812 C 289.695312 90.269531 287.640625 90.324219 285.660156 90.449219 C 285.351562 89.878906 285.082031 89.15625 284.765625 88.667969 Z M 282.976562 90.535156 C 283.898438 90.535156 284.609375 90.601562 285.425781 90.640625 C 285.527344 90.667969 285.546875 90.773438 285.679688 90.769531 C 285.761719 90.78125 285.675781 90.621094 285.765625 90.640625 C 287.109375 90.6875 288.855469 90.574219 290.363281 90.640625 C 290.976562 90.667969 291.328125 90.6875 291.917969 90.617188 C 292.074219 90.601562 292.492188 90.601562 292.492188 90.429688 C 292.496094 90.261719 292.28125 90.308594 292.152344 90.238281 C 292.332031 89.941406 292.46875 89.578125 292.601562 89.21875 C 292.730469 88.867188 292.898438 88.476562 292.835938 88.074219 C 292.589844 87.992188 292.214844 88.03125 292.023438 88.050781 C 290.285156 88.253906 288.414062 88.269531 286.722656 88.414062 C 286.027344 88.472656 285.203125 88.460938 284.679688 88.605469 C 284.535156 88.433594 284.277344 88.535156 284.019531 88.5625 C 283.851562 88.578125 283.648438 88.554688 283.59375 88.667969 C 283.820312 88.714844 284.140625 88.675781 284.402344 88.6875 C 284.710938 89.265625 284.96875 89.890625 285.296875 90.449219 C 285.027344 90.4375 284.8125 90.476562 284.574219 90.492188 C 284.425781 89.847656 283.925781 89.476562 283.636719 88.988281 C 283.546875 88.835938 283.464844 88.574219 283.230469 88.5625 C 283.183594 88.914062 283.425781 89.214844 283.59375 89.472656 C 283.78125 89.757812 284 90.015625 284.125 90.324219 C 283.695312 90.285156 282.945312 90.207031 282.507812 90.257812 C 282.363281 90.277344 282.210938 90.316406 282.230469 90.429688 C 282.253906 90.566406 282.703125 90.535156 282.976562 90.535156 Z M 293.34375 116.035156 C 293.355469 116.222656 293.375 116.375 293.410156 116.753906 C 293.429688 116.960938 293.441406 117.324219 293.664062 117.304688 C 294.007812 117.277344 293.738281 116.367188 293.726562 116.222656 C 293.589844 114.324219 293.773438 112.332031 293.6875 110.390625 C 293.613281 108.757812 293.558594 107.074219 293.453125 105.46875 C 293.4375 105.265625 293.441406 105.027344 293.324219 104.855469 C 293.308594 104.855469 293.296875 104.855469 293.28125 104.855469 C 293.25 104.867188 293.230469 104.886719 293.21875 104.917969 C 293.175781 105.414062 293.171875 106.105469 293.195312 106.679688 C 293.21875 107.191406 293.214844 107.71875 293.238281 108.226562 C 293.355469 110.714844 293.230469 113.445312 293.34375 116.035156 Z M 290.492188 115.714844 C 290.613281 115.695312 290.632812 115.378906 290.640625 115.226562 C 290.679688 114.605469 290.710938 113.886719 290.683594 113.320312 C 290.582031 111.171875 290.566406 109.105469 290.429688 107.082031 C 290.40625 106.785156 290.425781 106.015625 290.214844 105.957031 C 290.183594 105.96875 290.164062 105.992188 290.152344 106.019531 C 290.125 107.703125 290.238281 109.167969 290.238281 110.964844 C 290.238281 112.207031 290.238281 113.460938 290.28125 114.675781 C 290.289062 114.921875 290.214844 115.753906 290.492188 115.714844 Z M 309.675781 107.292969 C 309.402344 107.167969 309.117188 107.035156 308.824219 106.933594 C 308.242188 106.726562 307.542969 106.589844 306.867188 106.464844 C 305.566406 106.230469 303.714844 106.0625 302.308594 106.128906 C 300.222656 106.222656 298.460938 106.710938 297.03125 107.441406 C 296.84375 107.539062 296.589844 107.640625 296.539062 107.863281 C 296.789062 107.835938 297.011719 107.683594 297.242188 107.589844 C 297.96875 107.289062 298.742188 107.050781 299.582031 106.871094 C 301.3125 106.5 303.425781 106.511719 305.246094 106.71875 C 305.882812 106.792969 306.511719 106.820312 307.097656 106.933594 C 307.675781 107.042969 308.234375 107.175781 308.761719 107.3125 C 309.320312 107.460938 309.820312 107.683594 310.335938 107.800781 C 310.273438 107.511719 309.929688 107.40625 309.675781 107.292969 Z M 314.339844 117.347656 C 314.59375 117.320312 314.46875 116.707031 314.464844 116.519531 C 314.445312 113.476562 314.476562 109.832031 314.339844 106.742188 C 314.332031 106.613281 314.324219 106.144531 314.148438 106.273438 C 314.117188 106.289062 314.097656 106.308594 314.082031 106.339844 C 314.050781 106.695312 314.042969 107.175781 314.042969 107.613281 C 314.042969 108.980469 314.03125 110.117188 314.042969 111.515625 C 314.050781 113.269531 314.140625 115.148438 314.148438 116.667969 C 314.148438 116.816406 314.011719 117.386719 314.339844 117.347656 Z M 316.9375 124.011719 C 317.007812 124 317.125 123.917969 317.128906 123.648438 C 317.140625 123.039062 317.128906 122.554688 317.128906 122.015625 C 317.128906 121.222656 317.101562 120.476562 317.085938 119.808594 C 316.988281 115.789062 317.0625 111.597656 316.914062 107.613281 C 316.902344 107.234375 316.941406 106.484375 316.59375 106.761719 C 316.496094 109.605469 316.574219 112.605469 316.574219 115.546875 C 316.574219 118.082031 316.558594 120.707031 316.660156 123.203125 C 316.667969 123.457031 316.5625 124.066406 316.9375 124.011719 Z M 310.398438 112.449219 C 309.875 112.164062 308.988281 112.476562 308.3125 112.363281 C 308.394531 111.953125 308.339844 111.453125 308.335938 111.003906 C 308.59375 111.011719 308.792969 110.992188 309.078125 110.964844 C 309.25 110.945312 309.675781 110.957031 309.65625 110.75 C 309.628906 110.5 308.550781 110.617188 308.335938 110.667969 C 308.359375 109.925781 308.238281 109.222656 308.207031 108.609375 C 308.523438 108.609375 308.820312 108.613281 309.164062 108.589844 C 309.382812 108.570312 309.945312 108.570312 309.910156 108.332031 C 309.878906 108.121094 309.121094 108.1875 308.886719 108.207031 C 308.46875 108.238281 308.117188 108.242188 307.867188 108.375 C 307.898438 109.675781 307.988281 111.316406 307.929688 112.640625 C 308.328125 112.980469 309.019531 112.765625 309.570312 112.703125 C 309.894531 112.664062 310.304688 112.710938 310.398438 112.449219 Z M 306.738281 108.332031 C 306.5625 108.164062 306.234375 108.226562 305.929688 108.246094 C 305.230469 108.296875 304.359375 108.253906 304.117188 108.589844 C 304.289062 109.6875 304.296875 111.058594 304.394531 112.195312 C 304.414062 112.382812 304.480469 112.777344 304.652344 112.765625 C 304.851562 112.75 304.808594 112.226562 304.800781 112.003906 C 304.777344 111.519531 304.695312 110.917969 304.671875 110.453125 C 304.980469 110.527344 305.328125 110.464844 305.652344 110.410156 C 305.867188 110.375 306.164062 110.351562 306.164062 110.136719 C 305.722656 110.035156 305.058594 110.175781 304.628906 110.15625 C 304.597656 109.675781 304.515625 109.238281 304.460938 108.777344 C 304.855469 108.757812 305.273438 108.695312 305.671875 108.628906 C 306.054688 108.566406 306.503906 108.582031 306.738281 108.332031 Z M 301.777344 108.863281 C 302.027344 108.910156 302.078125 109.402344 302.136719 109.710938 C 302.210938 110.082031 302.269531 110.4375 302.289062 110.730469 C 301.878906 110.816406 301.410156 110.847656 300.96875 110.898438 C 301.125 110.109375 301.308594 109.34375 301.777344 108.863281 Z M 300.5625 112.785156 C 300.765625 112.761719 300.726562 112.257812 300.753906 112.023438 C 300.792969 111.710938 300.832031 111.441406 300.902344 111.21875 C 301.445312 111.296875 301.863281 111.109375 302.308594 111.027344 C 302.332031 111.351562 302.347656 111.589844 302.394531 111.855469 C 302.421875 111.996094 302.472656 112.515625 302.714844 112.46875 C 302.855469 112.441406 302.851562 112.210938 302.839844 111.980469 C 302.820312 111.410156 302.707031 110.769531 302.648438 110.304688 C 302.570312 109.671875 302.320312 107.925781 301.457031 108.589844 C 301.09375 108.867188 300.769531 109.695312 300.648438 110.285156 C 300.515625 110.929688 300.292969 111.84375 300.351562 112.511719 C 300.367188 112.714844 300.453125 112.800781 300.5625 112.785156 Z M 297.667969 109.117188 C 298.046875 109.035156 298.117188 109.378906 298.453125 109.308594 C 298.628906 108.871094 298.117188 108.589844 297.625 108.652344 C 297.273438 108.695312 296.964844 109.160156 296.835938 109.414062 C 296.242188 110.621094 296.597656 113.0625 298.15625 112.976562 C 298.617188 112.953125 299.230469 112.609375 299.117188 112.128906 C 298.6875 112.140625 298.574219 112.488281 298.179688 112.53125 C 297.964844 112.558594 297.722656 112.492188 297.5625 112.363281 C 296.992188 111.910156 296.886719 110.519531 297.199219 109.753906 C 297.296875 109.515625 297.5 109.152344 297.667969 109.117188 Z M 272.097656 109.5 C 272.148438 109.5625 272.265625 109.617188 272.371094 109.5625 C 272.597656 109.300781 272.015625 109.097656 272.097656 109.5 Z M 273.457031 109.902344 C 273.4375 109.808594 273.335938 109.769531 273.222656 109.816406 C 273.089844 109.878906 272.957031 110.300781 272.949219 110.410156 C 273.089844 110.371094 273.5 110.082031 273.457031 109.902344 Z M 273.777344 110.625 C 273.484375 110.402344 273.449219 111.003906 273.414062 111.175781 C 273.613281 111.074219 273.773438 110.855469 273.777344 110.625 Z M 273.777344 111.003906 C 273.9375 110.976562 274.105469 111.011719 274.117188 110.878906 C 274.136719 110.664062 273.714844 110.71875 273.777344 111.003906 Z M 272.820312 110.941406 C 272.546875 110.898438 272.429688 111.410156 272.480469 111.621094 C 272.582031 111.382812 272.773438 111.234375 272.820312 110.941406 Z M 274.011719 111.746094 C 273.988281 111.886719 274.050781 111.9375 274.117188 111.980469 C 273.972656 112.054688 273.886719 112.269531 273.777344 112.449219 C 273.695312 112.582031 273.445312 112.832031 273.691406 112.957031 C 273.894531 112.648438 274.195312 112.4375 274.332031 112.066406 C 274.320312 111.992188 274.246094 111.980469 274.203125 111.9375 C 274.253906 111.917969 274.273438 111.867188 274.269531 111.792969 C 274.230469 111.734375 274.191406 111.683594 274.097656 111.683594 C 274.078125 111.710938 274.039062 111.726562 274.011719 111.746094 Z M 273.542969 112.320312 C 273.230469 112.285156 272.984375 112.609375 272.949219 112.851562 C 273.058594 112.851562 273.167969 112.722656 273.289062 112.640625 C 273.398438 112.5625 273.59375 112.476562 273.542969 112.320312 Z M 297.347656 114.335938 C 297.664062 114.507812 298.003906 114.605469 298.347656 114.738281 C 299.660156 115.253906 301.511719 115.417969 303.265625 115.417969 C 305.273438 115.417969 307.507812 115.171875 308.761719 114.378906 C 308.945312 114.261719 309.195312 114.136719 309.230469 113.910156 C 309.136719 113.851562 309.027344 113.839844 308.929688 113.871094 C 308.53125 113.984375 308.105469 114.167969 307.695312 114.335938 C 307.265625 114.511719 306.824219 114.597656 306.3125 114.675781 C 304.375 114.960938 301.984375 115.128906 299.902344 114.824219 C 298.914062 114.679688 298.019531 114.441406 297.15625 114.125 C 297.125 114.238281 297.28125 114.300781 297.347656 114.335938 Z M 275.269531 114.65625 C 275.523438 114.375 275.042969 114.117188 274.992188 114.421875 C 274.96875 114.554688 275.054688 114.679688 275.269531 114.65625 Z M 274.714844 115.226562 C 274.730469 115.03125 274.753906 114.753906 274.671875 114.613281 C 274.203125 114.480469 274.390625 115.246094 274.714844 115.226562 Z M 269.542969 115.480469 C 269.78125 115.433594 269.847656 115.207031 269.925781 114.992188 C 269.691406 114.746094 269.503906 115.261719 269.542969 115.480469 Z M 270.585938 116.035156 C 270.808594 115.894531 270.890625 115.617188 270.988281 115.355469 C 270.703125 115.085938 270.445312 115.8125 270.585938 116.035156 Z M 320.214844 133.34375 C 319.78125 131.421875 319.636719 129.097656 319.300781 127.148438 C 319.367188 127.152344 319.402344 127.125 319.449219 127.105469 C 319.570312 127.605469 319.609375 128.144531 319.660156 128.675781 C 319.820312 130.257812 319.917969 131.941406 320.238281 133.386719 C 320.21875 133.425781 320.214844 133.375 320.214844 133.34375 Z M 313.101562 129.523438 C 313.074219 128.875 313.183594 128.175781 313.167969 127.46875 C 313.253906 127.453125 313.253906 127.523438 313.339844 127.511719 C 313.273438 128.195312 313.191406 128.863281 313.101562 129.523438 Z M 313.550781 126.152344 C 314.878906 124.996094 317.085938 124.875 319.40625 124.730469 C 319.414062 125.265625 319.269531 125.753906 319.300781 126.234375 C 317.941406 126.566406 316.433594 126.875 314.679688 126.875 C 314.410156 126.875 313.207031 126.984375 313.125 126.726562 C 313.078125 126.570312 313.414062 126.273438 313.550781 126.152344 Z M 319.621094 125.664062 C 319.726562 125.113281 319.777344 124.492188 319.832031 123.859375 C 320 121.839844 320.136719 119.75 320.683594 117.984375 C 320.789062 117.652344 320.894531 117.253906 321.066406 117.03125 C 321.34375 116.671875 321.960938 116.515625 322.238281 116.988281 C 322.492188 117.417969 322.503906 118.230469 322.449219 118.9375 C 322.425781 119.253906 322.457031 119.605469 322.386719 119.851562 C 322.347656 119.992188 322.242188 120.058594 322.175781 120.167969 C 321.976562 120.503906 321.761719 121.289062 321.449219 121.292969 C 321.171875 121.296875 320.890625 120.523438 320.832031 120.253906 C 320.660156 119.425781 321.015625 118.570312 321.066406 117.898438 C 320.234375 120.238281 320 123.324219 319.683594 126.152344 C 319.625 126.152344 319.5625 126.144531 319.535156 126.171875 C 319.503906 126.003906 319.585938 125.839844 319.621094 125.664062 Z M 320.238281 130.882812 C 320.097656 129.675781 319.992188 128.398438 319.746094 127.296875 C 319.703125 127.101562 319.640625 127.027344 319.640625 126.894531 C 318.054688 127.023438 316.335938 127.417969 314.507812 127.382812 C 314.25 127.378906 313.964844 127.398438 313.804688 127.277344 C 315.980469 127.109375 318.242188 127.035156 319.726562 126.214844 C 319.722656 126.410156 319.742188 126.605469 319.894531 126.597656 C 320.039062 126.585938 320.0625 126.226562 320.085938 126.003906 C 320.285156 124.347656 320.332031 122.445312 320.597656 121.019531 C 320.664062 121.601562 321.425781 121.996094 321.875 121.550781 C 322.125 121.300781 322.132812 120.824219 322.324219 120.574219 C 322.324219 120.578125 322.324219 120.585938 322.324219 120.59375 C 322.136719 121.941406 321.882812 123.34375 321.683594 124.730469 C 321.671875 124.808594 321.582031 125.246094 321.726562 125.28125 C 321.871094 125.320312 321.921875 125.042969 321.941406 124.984375 C 322.082031 124.566406 322.136719 124.269531 322.21875 123.691406 C 322.398438 122.390625 322.613281 121.355469 322.726562 120 C 322.824219 118.867188 323 117.46875 322.492188 116.734375 C 322.101562 116.171875 321.304688 116.34375 320.875 116.753906 C 320.484375 117.128906 320.289062 118.015625 320.152344 118.664062 C 319.761719 120.519531 319.582031 122.554688 319.429688 124.5625 C 318.773438 124.449219 318.117188 124.574219 317.46875 124.605469 C 316.8125 124.632812 316.128906 124.636719 315.53125 124.753906 C 314.980469 124.859375 314.492188 125.070312 314.019531 125.324219 C 313.589844 125.558594 313.121094 125.867188 312.871094 126.257812 C 312.816406 126.339844 312.6875 126.605469 312.675781 126.683594 C 312.644531 126.953125 312.863281 127.109375 312.914062 127.320312 C 312.972656 127.574219 312.902344 127.945312 312.871094 128.273438 C 312.835938 128.605469 312.824219 128.949219 312.804688 129.25 C 312.703125 130.953125 312.484375 132.355469 312.1875 133.832031 C 312.132812 134.109375 311.984375 134.519531 312.058594 134.703125 C 312.105469 134.8125 312.296875 134.917969 312.378906 134.914062 C 312.542969 134.90625 312.53125 134.761719 312.675781 134.636719 C 312.773438 134.558594 312.878906 134.558594 312.933594 134.488281 C 313.15625 134.210938 313.28125 133.625 313.339844 133.089844 C 313.535156 131.257812 313.824219 129.445312 313.871094 127.65625 C 314.398438 127.679688 314.996094 127.730469 315.53125 127.679688 C 315.554688 128.824219 315.550781 130.171875 315.511719 131.328125 C 315.492188 131.894531 315.382812 132.621094 315.660156 132.875 C 315.148438 132.859375 315.238281 133.433594 315.636719 133.449219 C 316.054688 133.46875 316.304688 132.980469 316.277344 132.621094 C 316.226562 132.535156 316.128906 132.683594 316.105469 132.621094 C 316.34375 131.808594 316.359375 130.570312 316.320312 129.546875 C 316.308594 129.246094 316.324219 128.929688 316.191406 128.699219 C 316.023438 129.980469 316.273438 131.679688 315.828125 132.683594 C 315.800781 131.054688 316.011719 129.15625 315.742188 127.679688 C 316.875 127.640625 317.933594 127.527344 318.851562 127.277344 C 318.867188 128.59375 319.089844 130.015625 319.277344 131.414062 C 319.40625 132.386719 319.578125 133.433594 319.875 134.257812 C 320.070312 134.796875 320.203125 135.46875 320.875 135.359375 C 321.011719 135.207031 320.902344 135.042969 320.875 134.890625 C 320.664062 133.65625 320.398438 132.269531 320.238281 130.882812 Z M 294.539062 117.539062 C 299.746094 117.820312 305.21875 117.644531 310.484375 117.644531 C 311.457031 117.644531 312.546875 117.746094 313.359375 117.601562 C 313.527344 117.574219 313.773438 117.582031 313.828125 117.410156 C 313.574219 117.191406 313.199219 117.292969 312.890625 117.304688 C 312.539062 117.324219 312.160156 117.316406 311.804688 117.304688 C 308.726562 117.21875 305.5625 117.308594 302.5 117.304688 C 300.695312 117.304688 298.898438 117.34375 297.136719 117.390625 C 296.351562 117.414062 295.523438 117.390625 294.8125 117.453125 C 294.742188 117.460938 294.558594 117.398438 294.539062 117.539062 Z M 306.78125 133.597656 C 306.308594 133.332031 305.863281 133.023438 305.589844 132.644531 C 306.371094 133.296875 307.328125 133.78125 308.527344 134.023438 C 307.875 133.988281 307.261719 133.871094 306.78125 133.597656 Z M 304.777344 123.777344 C 301.996094 123.898438 299.015625 123.839844 297.09375 122.84375 C 297.042969 122.671875 297.042969 122.453125 297.007812 122.269531 C 297.101562 122.246094 297.152344 122.351562 297.21875 122.398438 C 298.046875 122.921875 299.53125 123.035156 300.882812 123.226562 C 304.25 123.703125 308.277344 123.53125 310.742188 122.375 C 310.996094 122.257812 311.261719 122.179688 311.484375 122.058594 C 311.679688 121.953125 311.824219 121.824219 311.976562 121.675781 C 312.023438 121.816406 311.984375 122.050781 311.996094 122.226562 C 310.277344 123.339844 307.558594 123.652344 304.777344 123.777344 Z M 304.734375 124.496094 C 304.664062 124.484375 304.667969 124.394531 304.671875 124.308594 C 304.695312 124.308594 304.714844 124.308594 304.734375 124.308594 C 304.734375 124.371094 304.734375 124.433594 304.734375 124.496094 Z M 304.269531 132.242188 C 303.65625 132.277344 303.070312 132.53125 302.414062 132.386719 C 303.109375 132.40625 303.855469 132.316406 304.355469 132.070312 C 304.390625 132.109375 304.292969 132.195312 304.269531 132.242188 Z M 309.015625 133.894531 C 308.882812 133.871094 308.734375 133.757812 308.566406 133.703125 C 308.398438 133.652344 308.210938 133.625 308.035156 133.578125 C 307.304688 133.378906 306.796875 133.144531 306.226562 132.75 C 305.972656 132.574219 305.621094 132.328125 305.546875 132.113281 C 305.460938 131.875 305.445312 131.527344 305.398438 131.222656 C 305.25 130.304688 305.160156 129.230469 305.160156 128.292969 C 305.160156 126.929688 305.0625 125.597656 304.972656 124.285156 C 307.261719 124.214844 309.71875 124.007812 311.441406 123.269531 C 311.644531 123.179688 312.035156 123.011719 312.144531 122.886719 C 312.484375 122.507812 312.503906 121.328125 312.1875 120.996094 C 312.125 121.039062 312.089844 121.105469 312.019531 121.144531 C 311.789062 121.285156 311.488281 121.367188 311.230469 121.507812 C 310.984375 121.636719 310.742188 121.792969 310.484375 121.910156 C 309.941406 122.15625 309.332031 122.292969 308.695312 122.417969 C 307.449219 122.667969 306.035156 122.84375 304.523438 122.84375 C 302.558594 122.84375 300.5625 122.761719 298.902344 122.398438 C 298.351562 122.277344 297.703125 122.175781 297.304688 121.972656 C 297.167969 121.902344 296.9375 121.699219 296.921875 121.550781 C 296.898438 121.320312 297.152344 121.015625 297.261719 120.914062 C 297.566406 120.632812 298.070312 120.390625 298.5625 120.191406 C 299.050781 119.988281 299.597656 119.828125 300.117188 119.703125 C 302.214844 119.191406 305.09375 119.015625 307.589844 119.300781 C 309.152344 119.480469 310.734375 119.863281 311.570312 120.722656 C 311.667969 120.820312 311.710938 120.992188 311.828125 121.039062 C 312.007812 120.859375 311.839844 120.65625 311.742188 120.53125 C 311.324219 119.992188 310.707031 119.71875 309.996094 119.46875 C 308.558594 118.96875 306.347656 118.746094 304.460938 118.832031 C 302.246094 118.9375 300.1875 119.144531 298.5625 119.832031 C 298.015625 120.0625 297.429688 120.328125 297.09375 120.679688 C 296.992188 120.785156 296.789062 121.035156 296.707031 121.230469 C 296.675781 121.3125 296.699219 121.429688 296.667969 121.527344 C 296.632812 121.621094 296.554688 121.671875 296.539062 121.742188 C 296.410156 122.332031 296.664062 123.140625 296.984375 123.269531 C 297.058594 123.296875 297.199219 123.269531 297.261719 123.289062 C 297.488281 123.363281 297.679688 123.566406 297.878906 123.667969 C 298.570312 124.03125 299.460938 124.007812 300.414062 124.136719 C 301.589844 124.296875 302.839844 124.347656 304.183594 124.328125 C 304.316406 126.734375 304.3125 129.277344 304.480469 131.644531 C 303.914062 131.894531 303.28125 132.246094 302.5 132.261719 C 302.289062 132.265625 302.007812 132.195312 301.820312 132.261719 C 302.496094 132.496094 303.359375 132.703125 304.140625 132.433594 C 303.582031 133.179688 302.777344 133.703125 301.820312 134.085938 C 301.578125 134.183594 300.945312 134.304688 300.902344 134.511719 C 300.875 134.644531 301.050781 134.832031 301.160156 134.871094 C 301.511719 134.988281 302.082031 134.734375 302.351562 134.636719 C 303.136719 134.355469 303.695312 134.023438 304.269531 133.617188 C 304.542969 133.425781 304.914062 133.238281 304.972656 132.855469 C 304.863281 132.761719 304.667969 132.875 304.585938 132.941406 C 304.539062 132.933594 304.597656 132.816406 304.503906 132.855469 C 304.328125 132.992188 304.144531 133.125 303.949219 133.238281 C 304.191406 132.90625 304.507812 132.648438 304.652344 132.21875 C 304.695312 132.164062 304.792969 132.164062 304.820312 132.089844 C 304.84375 131.898438 304.8125 131.777344 304.886719 131.644531 C 304.761719 131.515625 304.777344 131.246094 304.777344 130.988281 C 304.824219 131.105469 304.96875 131.089844 305.011719 131.050781 C 305.125 131.625 305.152344 132.285156 305.4375 132.683594 C 304.691406 132.441406 305.207031 133.199219 305.398438 133.386719 C 305.882812 133.867188 306.710938 134.359375 307.546875 134.550781 C 308.25 134.714844 308.757812 134.726562 309.378906 134.511719 C 309.589844 134.4375 310.035156 134.289062 309.953125 134.023438 C 309.878906 133.792969 309.335938 133.957031 309.015625 133.894531 Z M 320.109375 126.363281 C 320.441406 126.296875 320.695312 126.023438 320.917969 125.8125 C 321.140625 125.601562 321.453125 125.367188 321.472656 125.027344 C 321.457031 125.027344 321.441406 125.027344 321.429688 125.027344 C 321.210938 125.222656 320.941406 125.460938 320.683594 125.683594 C 320.457031 125.886719 320.132812 126.085938 320.109375 126.363281 Z M 307.207031 127.339844 C 306.890625 127.339844 305.992188 127.304688 305.972656 127.550781 C 305.957031 127.742188 306.253906 127.753906 306.503906 127.765625 C 307.332031 127.792969 307.980469 127.707031 308.695312 127.679688 C 309.433594 127.652344 310.214844 127.648438 310.890625 127.59375 C 311.109375 127.578125 311.359375 127.597656 311.507812 127.445312 C 311.117188 127.304688 310.632812 127.328125 310.144531 127.320312 C 309.117188 127.296875 308.253906 127.339844 307.207031 127.339844 Z M 302.351562 127.511719 C 302.167969 127.335938 301.730469 127.382812 301.308594 127.382812 C 300.875 127.382812 300.4375 127.347656 300.136719 127.382812 C 300.019531 127.398438 299.867188 127.492188 299.925781 127.65625 C 299.980469 127.824219 300.574219 127.773438 300.777344 127.765625 C 301.027344 127.753906 301.335938 127.722656 301.628906 127.699219 C 301.910156 127.679688 302.265625 127.726562 302.351562 127.511719 Z M 293.175781 128.71875 C 293.191406 130.269531 293.464844 131.78125 293.429688 133.238281 C 293.019531 131.734375 293.117188 129.71875 292.921875 128 C 292.890625 127.996094 292.890625 127.96875 292.855469 127.976562 C 292.855469 128.003906 292.847656 128.023438 292.835938 128.039062 C 292.808594 128.496094 292.773438 129.175781 292.789062 129.671875 C 292.832031 130.71875 292.78125 131.734375 292.941406 132.683594 C 293.003906 133.070312 293.152344 133.769531 293.578125 133.578125 C 293.703125 133.523438 293.726562 133.277344 293.726562 133.132812 C 293.730469 132.789062 293.648438 132.402344 293.601562 132.027344 C 293.457031 130.910156 293.324219 129.765625 293.175781 128.71875 Z M 277.867188 129.398438 C 277.542969 129.414062 277.171875 129.414062 276.84375 129.441406 C 276.644531 129.457031 276.070312 129.480469 276.078125 129.671875 C 276.082031 129.773438 276.261719 129.828125 276.375 129.84375 C 276.777344 129.894531 277.132812 129.820312 277.632812 129.78125 C 277.914062 129.753906 278.746094 129.765625 278.71875 129.523438 C 278.6875 129.273438 278.035156 129.390625 277.867188 129.398438 Z M 276.015625 130.375 C 275.855469 130.382812 275.621094 130.363281 275.523438 130.5 C 275.652344 130.683594 275.996094 130.640625 276.226562 130.628906 C 276.59375 130.609375 277.007812 130.574219 277.398438 130.542969 C 277.792969 130.511719 278.222656 130.519531 278.460938 130.332031 C 277.730469 130.226562 276.8125 130.335938 276.015625 130.375 Z M 319.257812 124.816406 C 319.191406 124.785156 318.859375 124.769531 318.894531 124.835938 C 318.972656 124.777344 319.210938 124.847656 319.257812 124.816406 Z M 287.722656 103.496094 C 289.226562 103.457031 290.761719 103.566406 292.324219 103.539062 C 292.347656 103.636719 292.246094 103.722656 292.195312 103.792969 C 291.746094 104.40625 291.171875 104.894531 290.085938 104.898438 C 288.949219 104.898438 288.0625 104.320312 287.722656 103.496094 Z M 272.351562 124.859375 C 272.410156 124.78125 272.5 124.734375 272.605469 124.710938 C 272.691406 124.585938 272.722656 124.519531 272.863281 124.476562 C 272.925781 124.253906 272.890625 123.941406 272.949219 123.714844 C 273.832031 123.679688 274.839844 123.515625 275.480469 123.882812 C 274.859375 124.625 273.5625 124.703125 272.351562 124.859375 Z M 274.695312 129.757812 C 273.972656 129.875 273.359375 130.097656 272.523438 130.164062 C 272.046875 130.199219 271.160156 130.332031 270.691406 130.164062 C 270.367188 130.042969 270.046875 129.511719 269.882812 129.144531 C 269.304688 127.859375 269.175781 126.253906 268.648438 124.964844 C 269.1875 125.1875 269.863281 125.191406 270.542969 125.261719 C 271.210938 125.328125 271.886719 125.445312 272.566406 125.410156 C 273.601562 125.351562 274.597656 125.121094 275.355469 124.792969 C 275.378906 124.796875 275.390625 124.789062 275.398438 124.773438 C 275.25 126.4375 274.933594 128.117188 274.695312 129.757812 Z M 271.714844 115.777344 C 271.769531 115.683594 271.898438 115.457031 271.753906 115.355469 C 271.53125 115.351562 271.511719 115.550781 271.480469 115.734375 C 271.140625 115.773438 271.175781 116.179688 271.03125 116.414062 C 270.371094 116.636719 270.484375 115.636719 269.902344 115.757812 C 269.664062 115.808594 269.664062 116.101562 269.457031 116.222656 C 269.292969 116.15625 269.148438 116.0625 269.050781 115.925781 C 269.09375 115.816406 269.117188 115.761719 269.09375 115.628906 C 269.785156 115.375 268.871094 114.898438 268.539062 114.78125 C 268.609375 114.574219 269.039062 114.117188 268.605469 114.015625 C 268.246094 113.9375 267.445312 114.136719 267.113281 114.015625 C 267.050781 113.941406 266.984375 113.863281 266.945312 113.761719 C 267.523438 113.261719 266.011719 112.960938 266.707031 112.300781 C 267.644531 112.570312 267.015625 111.300781 267.070312 110.730469 C 267.140625 110.65625 267.289062 110.664062 267.433594 110.667969 C 267.597656 110.792969 267.859375 110.929688 268.09375 110.878906 C 268.46875 110.792969 268.140625 110.339844 268.328125 110.136719 C 268.527344 110.28125 268.441406 110.613281 268.6875 110.644531 C 268.910156 110.675781 269.03125 110.410156 269.347656 110.476562 C 269.621094 110.664062 269.742188 111.003906 269.945312 111.261719 C 269.96875 111 269.832031 110.539062 269.628906 110.347656 C 269.472656 110.207031 269.253906 110.199219 268.988281 110.242188 C 268.878906 110.21875 269.070312 110.183594 269.03125 110.09375 C 268.796875 109.804688 268.894531 109.042969 269.242188 108.949219 C 269.476562 108.886719 269.683594 109.179688 269.902344 109.03125 C 270.121094 108.886719 270.082031 108.488281 270.394531 108.460938 C 270.546875 108.445312 270.644531 108.609375 270.863281 108.589844 C 271.074219 108.5625 271.128906 108.234375 271.265625 107.972656 C 271.402344 107.707031 271.714844 107.167969 272.054688 107.359375 C 272.25 107.46875 272.261719 107.941406 272.523438 107.972656 C 272.644531 107.988281 272.703125 107.890625 272.820312 107.863281 C 273.085938 108.109375 272.882812 108.585938 273.246094 108.628906 C 273.351562 108.640625 273.476562 108.535156 273.609375 108.566406 C 273.707031 108.589844 273.78125 108.761719 273.839844 108.90625 C 273.953125 109.164062 274.078125 109.304688 274.117188 109.628906 C 273.824219 109.660156 273.355469 109.960938 273.671875 110.261719 C 274.03125 110.203125 274.347656 110.21875 274.652344 110.21875 C 274.835938 110.5625 274.15625 111.1875 274.652344 111.28125 C 274.957031 111.339844 275.105469 111.023438 275.417969 111.113281 C 275.503906 111.339844 275.28125 111.585938 275.183594 111.769531 C 275.136719 111.738281 275.132812 111.664062 275.054688 111.664062 C 274.722656 111.734375 274.722656 112.136719 274.523438 112.34375 C 274.5625 112.414062 274.425781 112.613281 274.566406 112.660156 C 274.757812 112.542969 274.832031 112.300781 274.96875 112.128906 C 275.023438 112.175781 275.023438 112.277344 275.078125 112.320312 C 274.890625 112.378906 274.789062 112.851562 274.992188 112.976562 C 275.085938 112.839844 275.21875 112.625 275.183594 112.425781 C 275.515625 112.445312 276.054688 112.542969 275.949219 113 C 275.800781 112.949219 275.738281 112.890625 275.523438 112.914062 C 275.371094 112.929688 275.28125 113.050781 275.097656 113.085938 C 274.734375 113.15625 274.429688 112.867188 274.117188 112.894531 C 273.675781 112.929688 273.292969 113.570312 273.628906 113.890625 C 273.746094 114.003906 273.910156 114.117188 274.078125 113.933594 C 274.082031 113.839844 273.960938 113.878906 273.96875 113.785156 C 274.03125 113.585938 274.148438 113.382812 274.332031 113.402344 C 274.601562 113.433594 274.542969 113.984375 274.800781 114.0625 C 275.175781 114.125 275.195312 113.832031 275.332031 113.65625 C 275.503906 113.683594 275.59375 113.792969 275.738281 113.847656 C 275.734375 114.105469 275.707031 114.386719 275.90625 114.441406 C 275.867188 114.550781 275.75 114.640625 275.738281 114.761719 C 275.726562 114.851562 275.800781 114.914062 275.800781 114.992188 C 275.800781 115.335938 275.460938 115.371094 275.269531 115.652344 C 275.199219 115.617188 275.167969 115.539062 275.078125 115.523438 C 274.664062 115.605469 274.523438 116.140625 273.96875 115.949219 C 274.074219 115.570312 274.023438 115.203125 273.757812 114.992188 C 273.535156 115.066406 273.726562 115.34375 273.800781 115.4375 C 273.738281 115.550781 273.691406 115.671875 273.671875 115.820312 C 273.472656 115.789062 273.398438 115.625 273.222656 115.566406 C 273.019531 115.617188 272.875 115.496094 272.714844 115.546875 C 272.5 115.613281 272.445312 115.859375 272.371094 116.097656 C 272.101562 116.042969 271.894531 115.921875 271.714844 115.777344 Z M 271.648438 117.792969 C 271.277344 117.625 270.9375 117.425781 270.710938 117.117188 C 271.082031 117.15625 271.394531 116.996094 271.605469 116.820312 C 271.605469 117.160156 271.65625 117.449219 271.648438 117.792969 Z M 273.734375 117.304688 C 273.8125 117.09375 273.875 116.863281 273.90625 116.605469 C 274.117188 116.605469 274.277344 116.550781 274.503906 116.5625 C 274.316406 116.878906 274.066406 117.136719 273.734375 117.304688 Z M 272.332031 118.9375 C 272.304688 118.203125 272.292969 117.449219 272.246094 116.734375 C 272.539062 116.84375 272.78125 116.703125 272.925781 116.542969 C 273.023438 116.515625 272.976562 116.636719 273.074219 116.605469 C 273.242188 116.519531 273.25 116.277344 273.480469 116.457031 C 273.207031 117.394531 272.84375 118.242188 272.332031 118.9375 Z M 276.332031 113.976562 C 276.277344 113.878906 276.359375 113.769531 276.3125 113.65625 C 276.445312 113.679688 276.351562 113.90625 276.332031 113.976562 Z M 302.4375 103.476562 C 302.480469 103.515625 302.367188 103.574219 302.308594 103.644531 C 302.101562 103.902344 301.90625 104.25 301.605469 104.449219 C 301.066406 104.816406 299.9375 105.171875 299.070312 104.855469 C 298.773438 104.746094 298.359375 104.425781 298.199219 104.175781 C 298.082031 103.988281 297.96875 103.527344 297.835938 103.496094 C 297.675781 103.457031 297.328125 103.878906 297.179688 104.027344 C 296.953125 104.246094 296.792969 104.472656 296.582031 104.601562 C 296.003906 104.945312 294.960938 105.214844 294.238281 104.875 C 293.726562 104.632812 293.316406 104.027344 293.089844 103.515625 C 296.148438 103.363281 299.285156 103.484375 302.4375 103.476562 Z M 307.566406 103.410156 C 307.589844 103.523438 307.464844 103.589844 307.398438 103.667969 C 307.183594 103.917969 306.980469 104.238281 306.695312 104.449219 C 306.285156 104.761719 305.640625 105.007812 305.011719 104.980469 C 303.90625 104.9375 303.398438 104.164062 302.882812 103.476562 C 304.414062 103.421875 305.980469 103.410156 307.566406 103.410156 Z M 312.421875 103.582031 C 312.152344 104.402344 311.128906 105.113281 310.039062 105.003906 C 309.15625 104.910156 308.46875 104.101562 308.058594 103.476562 C 308.035156 103.46875 308.042969 103.433594 308.015625 103.433594 C 309.46875 103.410156 310.976562 103.523438 312.421875 103.582031 Z M 292.789062 103.667969 C 293.003906 104.359375 293.441406 104.964844 294.027344 105.257812 C 295.363281 105.925781 297.289062 104.980469 297.773438 104.027344 C 298.160156 105.039062 298.984375 105.527344 300.371094 105.382812 C 301.050781 105.316406 301.820312 104.949219 302.222656 104.601562 C 302.292969 104.539062 302.703125 104 302.777344 104.003906 C 302.792969 104.007812 302.914062 104.1875 302.96875 104.257812 C 303.46875 104.902344 304.253906 105.550781 305.460938 105.425781 C 306.542969 105.316406 307.425781 104.632812 307.84375 103.898438 C 308.410156 104.691406 309.210938 105.640625 310.570312 105.46875 C 311.578125 105.34375 312.3125 104.789062 312.742188 104.109375 C 312.847656 104.261719 313.015625 104.496094 313.1875 104.640625 C 313.703125 105.074219 314.863281 105.421875 315.617188 105.171875 C 315.945312 105.0625 316.203125 104.746094 316.445312 104.578125 C 316.480469 104.902344 316.324219 105.507812 316.660156 105.449219 C 316.945312 105.398438 316.683594 104.78125 316.703125 104.515625 C 317.148438 105.171875 318.402344 105.59375 319.554688 105.449219 C 320.066406 105.382812 320.570312 104.886719 320.769531 104.472656 C 320.855469 104.289062 321.035156 103.949219 320.8125 103.773438 C 320.519531 103.8125 320.363281 104.109375 320.214844 104.324219 C 320.046875 104.566406 319.898438 104.820312 319.621094 104.9375 C 318.949219 105.226562 317.828125 104.917969 317.40625 104.640625 C 317.277344 104.558594 317.097656 104.378906 316.980469 104.21875 C 316.835938 104.027344 316.769531 103.746094 316.574219 103.75 C 316.363281 103.757812 316.261719 104.132812 316.128906 104.300781 C 315.890625 104.597656 315.484375 104.886719 315.042969 104.898438 C 314.035156 104.917969 313.234375 104.367188 312.953125 103.582031 C 315.179688 103.644531 317.679688 103.644531 319.832031 103.539062 C 320.140625 103.523438 320.445312 103.578125 320.703125 103.476562 C 320.902344 103.640625 320.980469 104.03125 321.28125 104.027344 C 321.359375 103.808594 321.1875 103.585938 321.089844 103.433594 C 320.972656 103.25 320.835938 103.09375 320.703125 102.945312 C 318.785156 100.757812 317.542969 97.953125 316.339844 95.054688 C 316.542969 94.664062 316.425781 93.960938 316.425781 93.398438 C 316.425781 90.300781 316.347656 87.265625 316.253906 84.339844 C 316.25 84.125 316.308594 83.886719 316.167969 83.703125 C 316.070312 83.875 316.09375 84.101562 316.082031 84.296875 C 316.074219 84.527344 316.082031 84.769531 316.082031 84.996094 C 316.082031 88.226562 316.082031 91.609375 316.148438 94.648438 C 316.09375 94.464844 315.972656 94.25 315.851562 93.949219 C 315.765625 93.738281 315.695312 93.292969 315.488281 93.3125 C 315.332031 93.328125 315.417969 93.445312 315.296875 93.503906 C 310.8125 93.585938 306.339844 93.609375 301.796875 93.609375 C 301.046875 93.609375 300.292969 93.667969 299.542969 93.632812 C 298.78125 93.597656 298.023438 93.699219 297.304688 93.632812 C 297.183594 93.621094 297.148438 93.621094 297.050781 93.566406 C 296.96875 93.648438 296.886719 93.625 296.792969 93.632812 C 295.734375 93.710938 294.265625 93.652344 293.109375 93.652344 C 292.558594 93.652344 291.921875 93.710938 291.601562 93.566406 C 291.496094 93.648438 291.464844 93.640625 291.34375 93.652344 C 290.953125 93.695312 290.511719 93.652344 290.085938 93.652344 C 287.632812 93.652344 285.042969 93.714844 282.613281 93.714844 C 282.1875 93.714844 281.714844 93.78125 281.359375 93.714844 C 281.230469 93.691406 281.25 93.671875 281.144531 93.609375 C 280.90625 93.824219 280.34375 93.71875 279.890625 93.738281 C 279.21875 93.765625 278.570312 93.78125 277.886719 93.78125 C 277.5625 93.78125 277.027344 93.710938 277.035156 93.949219 C 277.046875 94.1875 277.675781 94.097656 277.929688 94.097656 C 279.007812 94.097656 280.070312 94.097656 281.082031 94.097656 C 281.371094 94.964844 281.882812 95.726562 282.316406 96.515625 C 283.519531 98.707031 284.824219 100.75 286.46875 102.457031 C 286.613281 102.609375 286.734375 102.855469 286.980469 102.882812 C 286.992188 102.652344 286.785156 102.5 286.660156 102.351562 C 285.144531 100.535156 283.855469 98.585938 282.679688 96.453125 C 282.257812 95.691406 281.789062 94.929688 281.484375 94.097656 C 283.164062 94.109375 284.808594 94.085938 286.46875 94.078125 C 287.058594 95.816406 287.964844 97.339844 288.9375 98.746094 C 289.785156 99.960938 290.71875 101.167969 291.683594 102.246094 C 291.816406 102.390625 291.957031 102.601562 292.171875 102.625 C 291.710938 101.945312 291.1875 101.308594 290.683594 100.652344 C 289.167969 98.679688 287.765625 96.582031 286.871094 94.078125 C 288.410156 94.054688 289.992188 94.074219 291.515625 94.035156 C 292.492188 97.097656 294.304688 99.433594 296.242188 101.523438 C 296.519531 101.824219 296.796875 102.183594 297.199219 102.328125 C 297.253906 102.214844 297.105469 102.15625 297.050781 102.09375 C 296.566406 101.5625 296.128906 101.046875 295.6875 100.484375 C 294.195312 98.574219 292.730469 96.582031 291.898438 94.035156 C 293.582031 94.046875 295.292969 93.964844 296.945312 94.015625 C 297.296875 95.925781 298.195312 97.417969 299.15625 98.765625 C 299.878906 99.777344 300.71875 100.722656 301.519531 101.628906 C 301.792969 101.9375 302.089844 102.277344 302.480469 102.4375 C 302.46875 102.226562 302.257812 102.105469 302.136719 101.96875 C 302.003906 101.816406 301.882812 101.65625 301.753906 101.5 C 299.945312 99.335938 298.078125 97.15625 297.285156 93.992188 C 298.757812 93.988281 300.183594 93.9375 301.671875 93.949219 C 301.804688 94.914062 302.242188 95.734375 302.648438 96.515625 C 303.769531 98.65625 305.164062 100.589844 306.78125 102.203125 C 306.925781 102.34375 307.050781 102.5625 307.269531 102.605469 C 307.253906 102.394531 307.074219 102.246094 306.949219 102.09375 C 304.988281 99.679688 303.113281 97.160156 301.988281 93.929688 C 303.453125 93.921875 305.03125 93.917969 306.394531 93.886719 C 306.289062 94.53125 306.59375 95 306.824219 95.539062 C 307.003906 95.96875 307.222656 96.359375 307.417969 96.707031 C 307.871094 97.511719 308.273438 98.226562 308.761719 98.894531 C 309.253906 99.570312 309.789062 100.214844 310.3125 100.84375 C 310.851562 101.492188 311.394531 102.152344 312.105469 102.585938 C 312.140625 102.472656 312.011719 102.390625 311.953125 102.328125 C 310.871094 101.15625 309.914062 99.921875 308.996094 98.59375 C 308.011719 97.179688 307.253906 95.578125 306.609375 93.886719 C 307.949219 93.90625 309.332031 93.855469 310.613281 93.886719 C 310.691406 94.886719 311.136719 95.710938 311.527344 96.496094 C 311.921875 97.285156 312.363281 98.035156 312.847656 98.722656 C 313.574219 99.75 314.351562 100.785156 315.191406 101.691406 C 315.472656 101.996094 315.753906 102.359375 316.167969 102.5 C 316.164062 102.289062 315.953125 102.164062 315.828125 102.03125 C 315.398438 101.582031 315.003906 101.101562 314.636719 100.609375 C 313.148438 98.613281 311.6875 96.558594 310.933594 93.863281 C 312.4375 93.863281 313.941406 93.863281 315.445312 93.863281 C 316.667969 97.179688 318.070312 100.429688 320.109375 102.859375 C 317.15625 102.792969 314.148438 102.839844 311.125 102.839844 C 308.101562 102.839844 305.042969 102.753906 301.96875 102.753906 C 300.472656 102.753906 298.933594 102.847656 297.410156 102.796875 C 295.890625 102.742188 294.355469 102.710938 292.855469 102.773438 C 291.34375 102.835938 289.855469 102.691406 288.382812 102.882812 C 287.316406 103.019531 286.242188 103.066406 285.191406 103.136719 C 284.675781 103.167969 284.046875 103.082031 283.765625 103.285156 C 283.675781 103.335938 283.460938 103.265625 283.464844 103.410156 C 283.488281 103.492188 283.652344 103.4375 283.742188 103.453125 C 283.851562 103.714844 284.074219 103.613281 284.359375 103.601562 C 285.324219 103.558594 286.339844 103.585938 287.214844 103.515625 C 287.019531 103.902344 286.695312 104.199219 286.339844 104.449219 C 285.996094 104.695312 285.554688 104.921875 285.042969 104.960938 C 284.136719 105.027344 283.59375 104.539062 283.148438 104.003906 C 282.011719 102.652344 280.972656 101.234375 280.082031 99.742188 C 278.921875 97.800781 277.816406 95.894531 276.90625 93.78125 C 276.855469 93.660156 276.8125 93.441406 276.632812 93.441406 C 276.464844 93.5625 276.667969 93.773438 276.675781 93.929688 C 276.210938 93.890625 276.550781 94.402344 276.589844 94.628906 C 276.6875 95.238281 276.632812 96 276.652344 96.730469 C 276.703125 98.832031 276.59375 101.277344 276.886719 103.050781 C 277.039062 103.109375 277.113281 103.25 277.355469 103.21875 C 277.550781 103.015625 277.492188 102.691406 277.484375 102.414062 C 277.414062 100.300781 277.242188 97.972656 277.140625 95.902344 C 278.257812 98.367188 279.625 100.695312 281.125 102.710938 C 280.15625 102.695312 279.113281 102.785156 278.1875 102.882812 C 277.988281 103.238281 278.078125 103.746094 278.078125 104.21875 C 278.078125 105.757812 278.144531 107.304688 278.144531 108.800781 C 278.144531 109.804688 278.207031 110.816406 278.207031 111.832031 C 278.207031 112.855469 278.210938 113.886719 278.25 114.886719 C 278.402344 118.933594 278.332031 123.046875 278.460938 127.042969 C 277.460938 126.988281 276.507812 127.269531 275.628906 127.339844 C 275.722656 126.707031 275.835938 125.746094 275.90625 125.027344 C 275.933594 124.75 276.011719 124.457031 275.992188 124.242188 C 275.953125 123.785156 275.691406 123.550781 275.355469 123.414062 C 275.292969 121.644531 275.242188 119.722656 275.183594 117.941406 C 275.179688 117.78125 275.207031 117.273438 275.054688 117.261719 C 274.859375 117.25 274.921875 117.785156 274.929688 117.921875 C 275.007812 119.710938 274.964844 121.542969 274.96875 123.351562 C 274.363281 123.238281 273.578125 123.316406 272.949219 123.375 C 272.902344 121.996094 272.507812 120.96875 272.457031 119.597656 C 272.867188 119.03125 273.257812 118.445312 273.585938 117.792969 C 274.535156 117.515625 275.296875 117.050781 275.585938 116.117188 C 275.917969 115.851562 276.46875 115.347656 276.121094 114.804688 C 276.554688 114.589844 277.074219 113.601562 276.355469 113.359375 C 276.742188 112.785156 276.382812 112.152344 275.929688 111.960938 C 276.164062 111.445312 276.054688 110.558594 275.4375 110.515625 C 275.402344 106.4375 275.304688 102.144531 275.207031 97.917969 C 275.128906 94.796875 275.074219 91.617188 274.949219 88.5 C 274.921875 87.816406 274.863281 86.964844 274.84375 86.183594 C 274.835938 85.972656 274.886719 85.550781 274.652344 85.550781 C 274.359375 85.550781 274.472656 86.019531 274.480469 86.183594 C 274.519531 87.175781 274.4375 88.179688 274.480469 89.175781 C 274.523438 90.152344 274.542969 91.132812 274.542969 92.105469 C 274.542969 94.054688 274.671875 96.003906 274.671875 97.960938 C 274.671875 101.867188 274.933594 105.765625 274.96875 109.648438 C 274.851562 109.589844 274.695312 109.570312 274.542969 109.542969 C 274.601562 109.320312 274.324219 109.128906 274.226562 108.882812 C 274.140625 108.675781 274.136719 108.5 274.011719 108.375 C 273.847656 108.210938 273.617188 108.199219 273.332031 108.207031 C 273.273438 107.828125 273.105469 107.457031 272.648438 107.546875 C 272.496094 107.234375 272.308594 106.941406 271.925781 106.933594 C 271.257812 106.917969 270.898438 107.707031 270.667969 108.164062 C 270.167969 108 269.863281 108.332031 269.667969 108.609375 C 268.929688 108.234375 268.371094 108.980469 268.414062 109.734375 C 267.984375 109.726562 267.769531 110.03125 267.773438 110.390625 C 267.484375 110.222656 266.992188 110.164062 266.753906 110.371094 C 266.363281 110.703125 266.625 111.46875 266.707031 111.917969 C 265.933594 112.015625 265.878906 113.15625 266.476562 113.488281 C 266.199219 113.894531 266.539062 114.527344 266.921875 114.613281 C 267.289062 114.695312 267.738281 114.480469 268.199219 114.570312 C 267.914062 115.050781 268.503906 115.265625 268.753906 115.480469 C 268.429688 115.832031 268.464844 116.738281 268.902344 116.945312 C 269.253906 117.113281 269.640625 116.917969 269.988281 116.734375 C 270.097656 116.808594 270.214844 116.875 270.308594 116.964844 C 270.53125 117.65625 271.027344 118.074219 271.714844 118.304688 C 271.695312 119.332031 271.761719 120.3125 271.945312 121.316406 C 272.140625 122.351562 271.839844 123.375 271.96875 124.414062 C 271.996094 124.636719 272.105469 124.789062 272.222656 124.859375 C 271.359375 124.910156 270.261719 124.921875 269.433594 124.816406 C 269.164062 124.78125 268.832031 124.792969 268.710938 124.5625 C 268.996094 124.179688 269.535156 124.070312 270.074219 123.945312 C 270.480469 123.851562 270.890625 123.765625 271.308594 123.691406 C 271.421875 123.671875 271.625 123.683594 271.667969 123.542969 C 271.617188 123.378906 271.390625 123.429688 271.265625 123.4375 C 270.757812 123.464844 270.296875 123.546875 269.882812 123.648438 C 269.414062 123.765625 268.667969 123.882812 268.457031 124.328125 C 268.183594 124.890625 268.511719 125.558594 268.6875 126.214844 C 268.996094 127.367188 269.21875 128.738281 269.753906 129.609375 C 269.984375 129.988281 270.140625 130.34375 270.5 130.566406 C 270.941406 130.835938 271.9375 130.785156 272.605469 130.777344 C 273.425781 130.769531 274.617188 130.824219 274.929688 130.308594 C 275.144531 130.300781 275.203125 130.132812 275.269531 129.972656 C 275.339844 129.199219 275.472656 128.328125 275.609375 127.550781 C 276.175781 127.6875 277.183594 127.511719 277.949219 127.53125 C 278.105469 127.535156 278.253906 127.582031 278.398438 127.574219 C 279.164062 127.523438 278.929688 126.769531 278.929688 125.960938 C 278.929688 123.359375 278.71875 120.863281 278.71875 118.324219 C 278.71875 117.289062 278.679688 116.261719 278.652344 115.246094 C 278.554688 111.105469 278.457031 106.910156 278.335938 103.050781 C 279.335938 103.09375 280.460938 103.273438 281.441406 103.136719 C 281.605469 103.277344 281.738281 103.492188 281.976562 103.75 C 282.105469 103.890625 282.464844 104.324219 282.636719 104.21875 C 282.757812 104.140625 282.621094 103.960938 282.679688 103.960938 C 282.691406 103.964844 282.703125 103.964844 282.699219 103.984375 C 282.945312 104.226562 283.058594 104.507812 283.296875 104.726562 C 283.863281 105.25 284.816406 105.527344 285.703125 105.234375 C 286.449219 104.988281 287.117188 104.425781 287.574219 103.941406 C 288.003906 104.695312 288.988281 105.300781 290.171875 105.296875 C 291.46875 105.296875 292.488281 104.644531 292.789062 103.667969 Z M 298.328125 127.214844 C 298.371094 127.207031 298.371094 127.15625 298.414062 127.148438 C 298.84375 129.046875 299.109375 131.109375 299.820312 132.730469 C 299.042969 131.183594 298.683594 129.109375 298.328125 127.214844 Z M 296.859375 127.445312 C 295.070312 127.664062 292.933594 127.578125 291.195312 127.425781 C 290.730469 127.386719 290.398438 127.324219 289.917969 127.277344 C 290.046875 127.164062 290.246094 127.125 290.386719 127.023438 C 291.808594 127.226562 293.707031 127.277344 295.367188 127.277344 C 295.894531 127.277344 296.449219 127.253906 296.773438 126.957031 C 294.921875 126.921875 292.703125 127.011719 290.75 126.851562 C 291.433594 126.496094 292.199219 126.21875 292.835938 125.8125 C 292.9375 125.800781 292.921875 125.910156 293.003906 125.917969 C 293.136719 125.792969 293.144531 125.71875 293.410156 125.683594 C 293.851562 125.632812 294.359375 125.695312 294.835938 125.726562 C 295.714844 125.789062 296.640625 125.808594 297.433594 126.023438 C 297.8125 126.128906 298.3125 126.269531 298.347656 126.554688 C 298.425781 127.140625 297.425781 127.378906 296.859375 127.445312 Z M 298.050781 127.382812 C 298.140625 127.386719 298.089844 127.527344 298.136719 127.574219 C 298.113281 127.59375 298.023438 127.414062 298.050781 127.382812 Z M 295.601562 132.324219 C 295.667969 132.351562 295.578125 132.4375 295.601562 132.324219 C 295.210938 130.875 294.945312 129.300781 294.558594 127.847656 C 294.628906 127.847656 294.699219 127.847656 294.773438 127.847656 C 295.109375 129.195312 295.246094 130.925781 295.601562 132.324219 Z M 289.257812 131.835938 C 289.335938 130.445312 289.578125 129.027344 289.621094 127.53125 C 289.707031 127.554688 289.792969 127.585938 289.894531 127.59375 C 289.714844 129.039062 289.484375 130.4375 289.257812 131.835938 Z M 288.425781 117.328125 C 288.5 117.230469 288.554688 117.117188 288.640625 117.03125 C 288.664062 117.035156 288.652344 117.050781 288.640625 117.050781 C 288.367188 118.84375 288.679688 120.636719 288.917969 122.292969 C 289.03125 123.097656 289.160156 123.949219 289.34375 124.730469 C 289.429688 125.109375 289.539062 125.5 289.597656 125.898438 C 289.625 126.089844 289.664062 126.316406 289.703125 126.511719 C 289.734375 126.652344 289.875 126.90625 289.660156 127 C 289.121094 123.953125 288.171875 121.050781 288.425781 117.328125 Z M 289.128906 116.414062 C 289.636719 116.140625 290.339844 116.367188 290.75 116.691406 C 291.023438 116.910156 291.316406 117.378906 291.367188 117.625 C 291.417969 117.902344 291.382812 118.261719 291.40625 118.578125 C 291.453125 119.148438 291.558594 119.820312 291.28125 120.214844 C 291.085938 120.488281 290.515625 120.730469 290.109375 120.550781 C 289.710938 120.378906 289.246094 119.714844 289.085938 119.257812 C 289.039062 119.113281 289 118.925781 288.980469 118.75 C 288.960938 118.570312 288.910156 118.390625 288.894531 118.242188 C 288.832031 117.621094 289.039062 116.945312 289.128906 116.414062 Z M 292.449219 123.753906 C 292.484375 123.988281 292.53125 124.226562 292.558594 124.457031 C 292.605469 124.863281 292.617188 125.222656 292.789062 125.515625 C 292.4375 125.730469 292.011719 125.859375 291.621094 126.023438 C 291.21875 126.195312 290.824219 126.34375 290.472656 126.554688 C 290.214844 125.574219 289.9375 124.582031 289.726562 123.542969 C 289.515625 122.5 289.375 121.421875 289.234375 120.296875 C 289.496094 120.695312 289.851562 121.0625 290.429688 121.039062 C 291.210938 121.007812 291.734375 120.3125 291.8125 119.511719 C 292.074219 120.824219 292.238281 122.351562 292.449219 123.753906 Z M 300.03125 132.199219 C 299.5625 131 299.292969 129.695312 299.007812 128.378906 C 298.890625 127.84375 298.679688 127.308594 298.625 126.832031 C 298.605469 126.648438 298.644531 126.53125 298.605469 126.40625 C 298.5 126.09375 297.976562 125.90625 297.605469 125.792969 C 296.3125 125.394531 294.605469 125.417969 293.109375 125.453125 C 293.15625 125.300781 293.152344 125.164062 293.132812 124.984375 C 293.054688 124.277344 292.898438 123.519531 292.8125 122.714844 C 292.652344 121.183594 292.460938 119.582031 292.089844 118.261719 C 291.90625 117.609375 291.601562 116.875 291.257812 116.476562 C 290.914062 116.082031 290.183594 115.679688 289.429688 115.757812 C 288.953125 115.804688 288.5 116.152344 288.277344 116.5625 C 288.191406 116.726562 288.023438 117.183594 288.023438 117.347656 C 288.023438 117.484375 288.097656 117.574219 288.109375 117.6875 C 288.125 117.882812 288.054688 118.101562 288.042969 118.304688 C 287.941406 120.007812 288.191406 121.335938 288.425781 122.714844 C 288.558594 123.496094 288.691406 124.273438 288.851562 125.050781 C 288.972656 125.628906 289.03125 126.261719 289.171875 126.808594 C 289.214844 126.984375 289.324219 127.140625 289.363281 127.320312 C 289.414062 127.558594 289.335938 127.917969 289.300781 128.253906 C 289.136719 129.863281 288.96875 131.496094 288.8125 133.066406 C 288.746094 133.710938 288.582031 134.324219 288.597656 134.933594 C 288.636719 135.027344 288.75 134.992188 288.8125 135.019531 C 288.855469 135.195312 288.910156 135.308594 289.109375 135.296875 C 289.363281 135.277344 289.484375 134.792969 289.535156 134.53125 C 289.628906 134.035156 289.660156 133.484375 289.746094 132.941406 C 290.007812 131.273438 290.324219 129.414062 290.386719 127.636719 C 291.617188 127.753906 292.824219 127.894531 294.21875 127.847656 C 294.371094 129.136719 294.691406 130.703125 294.941406 132.132812 C 295.128906 133.203125 295.269531 134.277344 295.75 135.105469 C 295.902344 135.363281 296.316406 135.632812 296.519531 135.316406 C 296.59375 135.199219 296.578125 135.109375 296.476562 134.976562 C 296.820312 134.761719 296.5 134.261719 296.390625 133.894531 C 296.304688 133.617188 296.203125 133.324219 296.136719 133.089844 C 295.636719 131.425781 295.421875 129.453125 294.984375 127.828125 C 295.964844 127.765625 297.125 127.765625 297.835938 127.511719 C 297.964844 128.730469 298.300781 129.839844 298.648438 131.03125 C 298.871094 131.804688 299.109375 132.753906 299.519531 133.40625 C 299.652344 133.621094 300.003906 133.886719 300.199219 133.617188 C 300.285156 133.507812 300.257812 133.414062 300.160156 133.28125 C 300.511719 132.96875 300.167969 132.550781 300.03125 132.199219 Z M 309.421875 131.710938 C 309.308594 131.804688 309.136719 131.839844 308.996094 131.902344 C 309.050781 131.835938 309.277344 131.757812 309.421875 131.710938 Z M 306.246094 132.453125 C 306.921875 132.941406 308.265625 132.691406 309.015625 132.453125 C 309.425781 132.320312 309.828125 132.074219 309.847656 131.691406 C 309.765625 131.609375 309.726562 131.480469 309.632812 131.414062 C 308.640625 131.5 307.679688 132.164062 306.546875 132.070312 C 306.203125 132.042969 305.976562 131.835938 305.714844 131.878906 C 305.769531 132.140625 306.046875 132.171875 306.269531 132.261719 C 306.253906 132.335938 306.203125 132.375 306.246094 132.453125 Z M 322.960938 132.792969 C 322.800781 131.628906 322.566406 130.699219 322.386719 129.609375 C 322.214844 128.5625 322.085938 127.417969 321.941406 126.320312 C 321.894531 125.980469 321.898438 125.574219 321.664062 125.347656 C 321.617188 125.34375 321.59375 125.363281 321.597656 125.410156 C 321.589844 127.96875 322.332031 130.082031 322.558594 132.410156 C 322.375 131.410156 322.066406 130.335938 321.855469 129.292969 C 321.699219 128.511719 321.636719 127.617188 321.429688 126.851562 C 321.367188 126.621094 321.261719 126.304688 320.941406 126.449219 C 320.890625 127.046875 321.144531 127.675781 321.214844 128.335938 C 321.363281 129.667969 321.605469 130.964844 321.875 132.21875 C 321.96875 132.652344 322.171875 133.675781 322.535156 133.832031 C 322.664062 133.886719 322.851562 133.859375 322.898438 133.832031 C 323.101562 133.703125 323.003906 133.097656 322.960938 132.792969 Z M 281.699219 87.375 C 281.765625 88.25 281.855469 89.15625 281.828125 90.109375 C 281.820312 90.289062 281.746094 90.859375 281.996094 90.851562 C 282.117188 90.847656 282.15625 90.699219 282.167969 90.535156 C 282.203125 90.042969 282.097656 89.542969 282.082031 89.132812 C 282.011719 87.550781 281.863281 86.042969 281.699219 84.574219 C 281.675781 84.355469 281.695312 83.757812 281.507812 83.746094 C 281.476562 83.757812 281.457031 83.777344 281.441406 83.808594 C 281.449219 84.390625 281.542969 84.984375 281.59375 85.570312 C 281.640625 86.140625 281.652344 86.738281 281.699219 87.375 " fill-opacity="1" fill-rule="evenodd"/></g><g fill="#000000" fill-opacity="1"><g transform="translate(64.414388, 203.814318)"><g><path d="M 32.378906 11.53125 C 42.398438 11.53125 51.25 2.097656 54.160156 -5.242188 C 55.324219 -8.269531 54.277344 -9.667969 52.878906 -8.96875 C 49.152344 -0.234375 41.117188 8.503906 32.261719 8.503906 C -0.347656 8.503906 4.777344 -64.410156 34.128906 -64.410156 C 41.699219 -64.410156 49.734375 -59.402344 51.015625 -50.78125 C 52.53125 -49.269531 54.042969 -50.898438 53.8125 -55.09375 C 53.460938 -60.683594 44.960938 -67.207031 34.128906 -67.207031 C -5.007812 -67.207031 -13.628906 11.53125 32.378906 11.53125 Z M 32.378906 11.53125 "/></g></g></g><g fill="#000000" fill-opacity="1"><g transform="translate(123.222934, 203.814318)"><g><path d="M 42.046875 -23.992188 C 38.320312 -13.394531 33.542969 1.628906 28.070312 1.628906 C 22.246094 1.628906 25.507812 -20.964844 26.207031 -27.371094 C 26.441406 -30.050781 24.925781 -31.097656 23.644531 -31.214844 C 23.644531 -35.410156 20.382812 -38.902344 16.65625 -39.484375 C -2.328125 -42.398438 -7.804688 -3.84375 7.570312 -3.84375 C 10.832031 -3.84375 14.558594 -7.6875 17.820312 -12.8125 C 17.003906 -4.308594 18.636719 4.078125 27.722656 4.542969 C 36.339844 5.007812 40.765625 -12.695312 44.144531 -22.363281 C 44.960938 -24.691406 42.980469 -24.808594 42.046875 -23.992188 Z M 15.957031 -37.039062 C 18.519531 -37.039062 21.199219 -34.824219 20.148438 -29.46875 C 19.917969 -28.652344 20.5 -28.070312 21.199219 -27.953125 L 19.683594 -23.0625 C 15.839844 -14.558594 10.832031 -6.523438 7.6875 -6.523438 C 1.046875 -6.523438 7.222656 -37.039062 15.957031 -37.039062 Z M 15.957031 -37.039062 "/></g></g></g><g fill="#000000" fill-opacity="1"><g transform="translate(165.262313, 203.814318)"><g><path d="M 6.640625 -28.417969 C 12.113281 -35.292969 26.441406 -53.925781 18.054688 -57.304688 C 10.25 -60.449219 2.445312 -42.511719 -0.582031 -22.945312 C -3.960938 -1.164062 -2.679688 22.710938 10.015625 19.917969 C 20.617188 17.703125 18.171875 1.863281 13.628906 -10.367188 C 19.917969 -10.484375 26.441406 -15.023438 30.167969 -22.363281 C 31.332031 -24.574219 29.003906 -24.808594 28.070312 -23.992188 C 24.226562 -16.65625 18.171875 -12.578125 12.578125 -13.160156 C 10.25 -18.753906 7.6875 -23.179688 6.171875 -24.691406 C 6.289062 -25.972656 6.40625 -27.253906 6.640625 -28.417969 Z M 10.714844 17.003906 C 5.007812 17.820312 4.425781 0.582031 5.125 -13.277344 C 6.753906 -11.996094 8.617188 -11.179688 10.484375 -10.714844 C 14.558594 0.582031 17.121094 16.074219 10.714844 17.003906 Z M 17.238281 -54.042969 C 19.800781 -52.644531 13.160156 -41.117188 7.453125 -33.660156 C 9.667969 -46.007812 13.628906 -55.90625 17.238281 -54.042969 Z M 9.203125 -14.09375 C 7.804688 -14.675781 6.523438 -15.609375 5.359375 -16.890625 L 5.707031 -20.734375 C 6.753906 -19.21875 8.035156 -16.890625 9.203125 -14.09375 Z M 9.203125 -14.09375 "/></g></g></g><g fill="#000000" fill-opacity="1"><g transform="translate(193.327395, 203.814318)"><g><path d="M 9.085938 -3.960938 C 6.40625 -3.960938 5.359375 -8.617188 5.589844 -14.328125 C 12.578125 -20.148438 26.089844 -34.128906 16.539062 -38.4375 C -2.214844 -46.824219 -8.617188 -1.28125 8.96875 -1.28125 C 17.585938 -1.28125 27.253906 -13.628906 30.867188 -22.363281 C 31.796875 -24.574219 29.699219 -24.808594 28.769531 -23.992188 C 23.878906 -13.628906 14.792969 -3.960938 9.085938 -3.960938 Z M 15.722656 -35.757812 C 20.035156 -33.195312 11.414062 -23.292969 5.824219 -17.703125 C 6.871094 -27.488281 10.832031 -38.4375 15.722656 -35.757812 Z M 15.722656 -35.757812 "/></g></g></g><g fill="#000000" fill-opacity="1"><g transform="translate(-0.400686, 246.428369)"><g><path d="M 82.996094 35.363281 C 109.238281 36.957031 133.933594 13.648438 142.730469 -5.113281 C 146.261719 -12.859375 143.738281 -16.691406 139.964844 -15.082031 C 128.808594 7.210938 106.363281 28.820312 83.171875 27.410156 C -2.269531 22.21875 22.761719 -167.988281 99.660156 -163.316406 C 119.496094 -162.113281 139.753906 -147.710938 141.738281 -124.925781 C 145.464844 -120.71875 149.691406 -124.75 149.746094 -135.773438 C 149.722656 -150.476562 128.484375 -168.917969 100.105469 -170.640625 C -2.425781 -176.867188 -37.539062 28.042969 82.996094 35.363281 Z M 82.996094 35.363281 "/></g></g></g><g fill="#000000" fill-opacity="1"><g transform="translate(143.276862, 273.595506)"><g><path d="M 16.890625 -41.8125 C 11.996094 -41.347656 9.203125 -37.621094 8.269531 -32.960938 C 3.960938 -31.914062 1.046875 -28.417969 -0.464844 -23.992188 C -3.960938 -14.210938 -0.234375 0 11.414062 0 C 16.191406 0 19.917969 -3.261719 22.710938 -7.921875 C 23.527344 -7.804688 24.460938 -7.6875 25.390625 -7.6875 C 34.011719 -7.453125 40.066406 -12.695312 43.445312 -22.363281 C 44.261719 -24.691406 42.28125 -24.808594 41.347656 -23.992188 C 37.621094 -13.394531 31.796875 -10.597656 25.742188 -10.597656 C 25.160156 -10.597656 24.691406 -10.597656 24.226562 -10.714844 C 25.742188 -13.976562 26.789062 -17.703125 27.371094 -21.546875 C 29.234375 -33.542969 25.160156 -42.628906 16.890625 -41.8125 Z M 12.695312 -29.933594 C 14.210938 -29.933594 15.609375 -28.769531 16.191406 -26.671875 C 17.355469 -26.089844 19.335938 -27.371094 18.753906 -29.234375 C 18.054688 -31.214844 15.609375 -32.496094 13.160156 -32.960938 C 13.976562 -35.992188 15.492188 -38.203125 17.472656 -38.667969 C 22.828125 -39.949219 25.625 -32.261719 23.878906 -21.78125 C 23.179688 -18.171875 22.363281 -14.558594 21.199219 -11.414062 C 14.441406 -14.210938 11.996094 -23.0625 12.695312 -29.933594 Z M 19.917969 -8.851562 C 18.054688 -5.125 15.492188 -2.796875 12.113281 -3.027344 C 7.921875 -3.378906 5.824219 -8.96875 5.824219 -15.023438 C 5.824219 -18.867188 6.523438 -22.945312 8.035156 -25.972656 C 9.085938 -18.867188 13.160156 -11.53125 19.917969 -8.851562 Z M 19.917969 -8.851562 "/></g></g></g><g fill="#000000" fill-opacity="1"><g transform="translate(184.617525, 273.595506)"><g><path d="M -1.164062 -3.027344 C -1.398438 0.464844 3.84375 1.046875 4.308594 -2.445312 C 9.550781 -22.597656 17.238281 -39.484375 22.945312 -39.484375 C 27.488281 -39.484375 26.324219 -32.261719 24.925781 -23.992188 C 23.0625 -12.8125 21.082031 0.699219 33.660156 1.28125 C 42.28125 1.746094 47.871094 -12.695312 51.25 -22.363281 C 52.0625 -24.691406 50.085938 -24.808594 49.152344 -23.992188 C 45.425781 -13.394531 39.484375 -1.628906 34.011719 -1.628906 C 29.234375 -1.628906 30.515625 -14.558594 31.796875 -23.878906 C 33.195312 -34.011719 30.867188 -41.929688 23.292969 -41.929688 C 17.003906 -41.929688 11.296875 -32.960938 6.640625 -20.847656 C 7.105469 -23.761719 7.6875 -26.441406 8.386719 -28.304688 C 10.132812 -32.960938 2.5625 -33.894531 1.28125 -31.097656 C -1.28125 -25.390625 -0.582031 -11.296875 -1.164062 -3.027344 Z M -1.164062 -3.027344 "/></g></g></g><g fill="#000000" fill-opacity="1"><g transform="translate(233.7605, 273.595506)"><g><path d="M -1.164062 -3.027344 C -1.398438 0.464844 3.84375 1.046875 4.308594 -2.445312 C 9.550781 -22.597656 17.238281 -39.484375 22.945312 -39.484375 C 27.488281 -39.484375 26.324219 -32.261719 24.925781 -23.992188 C 23.0625 -12.8125 21.082031 0.699219 33.660156 1.28125 C 42.28125 1.746094 47.871094 -12.695312 51.25 -22.363281 C 52.0625 -24.691406 50.085938 -24.808594 49.152344 -23.992188 C 45.425781 -13.394531 39.484375 -1.628906 34.011719 -1.628906 C 29.234375 -1.628906 30.515625 -14.558594 31.796875 -23.878906 C 33.195312 -34.011719 30.867188 -41.929688 23.292969 -41.929688 C 17.003906 -41.929688 11.296875 -32.960938 6.640625 -20.847656 C 7.105469 -23.761719 7.6875 -26.441406 8.386719 -28.304688 C 10.132812 -32.960938 2.5625 -33.894531 1.28125 -31.097656 C -1.28125 -25.390625 -0.582031 -11.296875 -1.164062 -3.027344 Z M -1.164062 -3.027344 "/></g></g></g><g fill="#000000" fill-opacity="1"><g transform="translate(282.903475, 273.595506)"><g><path d="M 9.085938 -3.960938 C 6.40625 -3.960938 5.359375 -8.617188 5.589844 -14.328125 C 12.578125 -20.148438 26.089844 -34.128906 16.539062 -38.4375 C -2.214844 -46.824219 -8.617188 -1.28125 8.96875 -1.28125 C 17.585938 -1.28125 27.253906 -13.628906 30.867188 -22.363281 C 31.796875 -24.574219 29.699219 -24.808594 28.769531 -23.992188 C 23.878906 -13.628906 14.792969 -3.960938 9.085938 -3.960938 Z M 15.722656 -35.757812 C 20.035156 -33.195312 11.414062 -23.292969 5.824219 -17.703125 C 6.871094 -27.488281 10.832031 -38.4375 15.722656 -35.757812 Z M 15.722656 -35.757812 "/></g></g></g><g fill="#000000" fill-opacity="1"><g transform="translate(311.667273, 273.595506)"><g><path d="M 10.484375 -2.679688 C 2.910156 -2.679688 6.40625 -37.039062 15.957031 -37.039062 C 18.285156 -37.039062 20.148438 -34.359375 18.519531 -29.585938 C 18.054688 -28.1875 19.683594 -26.441406 21.898438 -27.253906 C 24.34375 -33.3125 21.199219 -38.320312 16.65625 -39.484375 C -3.144531 -44.726562 -8.734375 0 10.367188 0 C 18.984375 0 29.003906 -12.695312 32.378906 -22.363281 C 33.195312 -24.691406 31.214844 -24.808594 30.285156 -23.992188 C 26.554688 -13.394531 16.191406 -2.679688 10.484375 -2.679688 Z M 10.484375 -2.679688 "/></g></g></g><g fill="#000000" fill-opacity="1"><g transform="translate(341.944934, 273.595506)"><g><path d="M -5.941406 -29.46875 C -3.496094 -30.398438 -1.164062 -30.980469 0.933594 -31.566406 C 0.117188 -28.304688 -0.347656 -24.925781 -0.582031 -21.898438 C -1.746094 -8.96875 -0.816406 8.96875 8.386719 9.316406 C 17.003906 9.550781 25.742188 -12.695312 29.117188 -22.363281 C 29.933594 -24.691406 27.953125 -24.808594 27.023438 -23.992188 C 23.292969 -13.394531 14.210938 6.40625 8.734375 6.40625 C 3.726562 6.40625 4.660156 -11.648438 6.058594 -22.480469 C 6.523438 -25.972656 6.988281 -29.351562 7.570312 -32.613281 C 13.511719 -33.195312 18.054688 -32.613281 20.265625 -32.261719 C 21.546875 -32.960938 22.128906 -35.292969 19.917969 -35.523438 C 16.074219 -35.875 12.113281 -35.757812 8.152344 -35.292969 L 8.386719 -36.804688 C 9.203125 -37.273438 9.898438 -37.738281 10.597656 -38.320312 C 18.285156 -44.027344 22.597656 -52.179688 16.773438 -54.277344 C 10.714844 -56.488281 5.242188 -47.054688 1.980469 -35.992188 C -0.464844 -34.710938 -2.910156 -33.777344 -4.890625 -32.847656 L -7.6875 -32.148438 C -8.96875 -30.515625 -8.152344 -28.652344 -5.941406 -29.46875 Z M 16.304688 -51.363281 C 17.9375 -50.433594 15.023438 -44.609375 9.433594 -40.417969 C 9.316406 -40.300781 9.316406 -40.300781 9.203125 -40.300781 C 11.179688 -47.871094 13.628906 -52.761719 16.304688 -51.363281 Z M 16.304688 -51.363281 "/></g></g></g></svg>